<svg width="42" height="42" xmlns="http://www.w3.org/2000/svg">

 <g>
  <title>Layer 1</title>
  <path stroke="#000" stroke-width="0" id="svg_1" d="m-0.15388,-0.30292l42.8787,0l0,43.10257l-42.58363,0l-0.29507,-43.10257z" opacity="undefined" fill="#007e7e"/>
  <g>
   <path d="m39.14722,21.01229c0,9.941 -8.059,18 -18,18c-9.94,0 -18,-8.059 -18,-18c0,-9.94 8.06,-18 18,-18c9.941,0 18,8.06 18,18" fill="#FFCC4D"/>
   <path d="m19.14722,21.01229c-0.419,0 -0.809,-0.265 -0.949,-0.684c-0.203,-0.599 -1.017,-2.316 -2.051,-2.316c-1.062,0 -1.888,1.827 -2.051,2.316c-0.175,0.523 -0.738,0.808 -1.265,0.632c-0.524,-0.174 -0.807,-0.741 -0.632,-1.265c0.125,-0.376 1.304,-3.683 3.948,-3.683s3.823,3.307 3.949,3.684c0.175,0.524 -0.108,1.091 -0.632,1.265c-0.106,0.034 -0.213,0.051 -0.317,0.051zm10,0c-0.419,0 -0.809,-0.265 -0.948,-0.684c-0.203,-0.599 -1.019,-2.316 -2.052,-2.316c-1.062,0 -1.889,1.827 -2.052,2.316c-0.175,0.523 -0.736,0.808 -1.265,0.632c-0.523,-0.174 -0.807,-0.741 -0.632,-1.265c0.126,-0.376 1.304,-3.683 3.949,-3.683s3.823,3.307 3.948,3.684c0.175,0.524 -0.108,1.091 -0.632,1.265c-0.105,0.034 -0.212,0.051 -0.316,0.051zm-8,4c-3.623,0 -6.027,-0.422 -9,-1c-0.679,-0.131 -2,0 -2,2c0,4 4.595,9 11,9c6.404,0 11,-5 11,-9c0,-2 -1.321,-2.132 -2,-2c-2.973,0.578 -5.377,1 -9,1z" fill="#664500"/>
   <path d="m12.14722,26.01229s3,1 9,1s9,-1 9,-1s-1.344,6.75 -9,6.75s-9,-6.75 -9,-6.75z" fill="#FFF"/>
   <path d="m21.14722,30.60629c-3.596,0 -6.272,-0.372 -7.937,-0.745l-0.825,-1.871c0.823,0.312 3.889,0.897 8.763,0.897c4.954,0 8.037,-0.616 8.864,-0.938l-0.701,1.842c-1.634,0.38 -4.419,0.815 -8.164,0.815z" fill="#664500"/>
  </g>
 </g>
</svg>