<svg viewBox="0 0 24 24" fill="#007E7E" xmlns="http://www.w3.org/2000/svg"><path fillrule="evenodd" cliprule="evenodd" d="M5.98949 4.57537C5.79423 4.38011 5.47765 4.38011 5.28239 4.57537L4.57528 5.28248C4.38002 5.47774 4.38002 5.79432 4.57528 5.98958L10.5857 12L4.57539 18.0104C4.38012 18.2057 4.38012 18.5222 4.57539 18.7175L5.28249 19.4246C5.47775 19.6199 5.79434 19.6199 5.9896 19.4246L12 13.4143L18.0103 19.4246C18.2056 19.6199 18.5222 19.6199 18.7174 19.4246L19.4245 18.7175C19.6198 18.5222 19.6198 18.2057 19.4245 18.0104L13.4142 12L19.4246 5.98958C19.6199 5.79432 19.6199 5.47774 19.4246 5.28248L18.7175 4.57537C18.5223 4.38011 18.2057 4.38011 18.0104 4.57537L12 10.5858L5.98949 4.57537Z"></path></svg>