<svg xmlns:xlink="http://www.w3.org/1999/xlink" width="20" height="20" viewBox="0 0 20 20" fill="none" xmlns="http://www.w3.org/2000/svg"><path d="M8.29248 14.8877C9.67871 14.8877 10.957 14.4395 12.0029 13.6924L15.9375 17.627C16.1201 17.8096 16.3608 17.9009 16.6182 17.9009C17.1577 17.9009 17.5396 17.4858 17.5396 16.9546C17.5396 16.7056 17.4565 16.4648 17.2739 16.2905L13.3643 12.3726C14.186 11.2935 14.6758 9.95703 14.6758 8.50439C14.6758 4.99316 11.8037 2.12109 8.29248 2.12109C4.78955 2.12109 1.90918 4.98486 1.90918 8.50439C1.90918 12.0156 4.78125 14.8877 8.29248 14.8877ZM8.29248 13.5098C5.55322 13.5098 3.28711 11.2437 3.28711 8.50439C3.28711 5.76514 5.55322 3.49902 8.29248 3.49902C11.0317 3.49902 13.2979 5.76514 13.2979 8.50439C13.2979 11.2437 11.0317 13.5098 8.29248 13.5098Z" fill="#111111"></path></svg>