<svg xmlns="http://www.w3.org/2000/svg" xmlns:xlink="http://www.w3.org/1999/xlink" width="24"  height="24" ><defs><svg viewBox="0 0 24 24" xmlns="http://www.w3.org/2000/svg" id="Bold"><path d="M21.5123 19.164L17.6439 15.2934C18.8217 13.5292 19.3017 11.3898 18.9903 9.29116C18.6789 7.19255 17.5985 5.28485 15.9592 3.93914C14.3199 2.59343 12.2389 1.90593 10.121 2.01037C8.00312 2.1148 5.99979 3.00371 4.50067 4.50418C3.00155 6.00464 2.11384 8.00939 2.01021 10.1285C1.90658 12.2475 2.59445 14.3294 3.94 15.9692C5.28555 17.6089 7.19258 18.6892 9.29015 19C11.3877 19.3108 13.5258 18.8299 15.2886 17.6507L19.1571 21.5205C19.4721 21.8279 19.8947 22 20.3347 22C20.7747 22 21.1973 21.8279 21.5123 21.5205C21.8246 21.208 22 20.7842 22 20.3422C22 19.9003 21.8246 19.4765 21.5123 19.164V19.164ZM10.549 4.50993C11.7432 4.50993 12.9106 4.86424 13.9035 5.52806C14.8965 6.19189 15.6704 7.13541 16.1274 8.23931C16.5844 9.34321 16.704 10.5579 16.471 11.7298C16.238 12.9017 15.6629 13.9781 14.8185 14.823C13.9741 15.6679 12.8982 16.2433 11.727 16.4764C10.5557 16.7095 9.3417 16.5899 8.2384 16.1326C7.13511 15.6754 6.1921 14.901 5.52864 13.9076C4.86518 12.9141 4.51106 11.7461 4.51106 10.5512C4.51283 8.9495 5.14953 7.4139 6.28149 6.28132C7.41345 5.14875 8.9482 4.51169 10.549 4.50993V4.50993Z"></path></svg></defs><use xlink:href="#Bold" fill="#007E7E"></use></svg>